<?xml version="1.0" encoding="UTF-8" standalone="no"?>
<svg
   xmlns:dc="http://purl.org/dc/elements/1.1/"
   xmlns:cc="http://creativecommons.org/ns#"
   xmlns:rdf="http://www.w3.org/1999/02/22-rdf-syntax-ns#"
   xmlns:svg="http://www.w3.org/2000/svg"
   xmlns="http://www.w3.org/2000/svg"
   xmlns:sodipodi="http://sodipodi.sourceforge.net/DTD/sodipodi-0.dtd"
   xmlns:inkscape="http://www.inkscape.org/namespaces/inkscape"
   viewBox="-0.4 0 245.6693 22.364404"
   height="22.365789"
   width="245.6693"
   xml:space="preserve"
   id="svg2"
   version="1.1"
   sodipodi:docname="decentlab_logo_transparent.svg"
   inkscape:export-filename="/Users/hasherdene/Documents/Decentlab/Shared/cdn/images/logos/decentlab_logo_white_bg.png"
   inkscape:export-xdpi="300.11078"
   inkscape:export-ydpi="300.11078"
   inkscape:version="1.0beta2 (2b71d25, 2019-12-03)"><sodipodi:namedview
     pagecolor="#ffffff"
     bordercolor="#666666"
     borderopacity="1"
     objecttolerance="10"
     gridtolerance="10"
     guidetolerance="10"
     inkscape:pageopacity="0"
     inkscape:pageshadow="2"
     inkscape:window-width="1721"
     inkscape:window-height="797"
     id="namedview28"
     showgrid="false"
     inkscape:pagecheckerboard="false"
     inkscape:current-layer="svg2"
     inkscape:showpageshadow="true"
     fit-margin-top="0"
     fit-margin-left="0"
     fit-margin-right="0"
     fit-margin-bottom="0"
     inkscape:snap-bbox="true"
     inkscape:bbox-nodes="true"
     inkscape:snap-page="true"
     viewbox-x="-0.4"
     inkscape:document-rotation="0"
     inkscape:zoom="1.9172165"
     inkscape:cx="69.12585"
     inkscape:cy="-8.0684183"
     inkscape:window-x="1320"
     inkscape:window-y="74"
     inkscape:window-maximized="0" /><metadata
     id="metadata8"><rdf:RDF><cc:Work
         rdf:about=""><dc:format>image/svg+xml</dc:format><dc:type
           rdf:resource="http://purl.org/dc/dcmitype/StillImage" /><dc:title></dc:title></cc:Work></rdf:RDF></metadata><defs
     id="defs6"><clipPath
       id="clipPath18"
       clipPathUnits="userSpaceOnUse"><path
         id="path16"
         d="M 0,595.28 H 841.89 V 0 H 0 Z"
         inkscape:connector-curvature="0" /></clipPath></defs><g
     inkscape:export-ydpi="300.11078"
     inkscape:export-xdpi="300.11078"
     inkscape:export-filename="/Users/hasherdene/Documents/Decentlab/Shared/cdn/images/logos/decentlab_logo_transparent.png"
     transform="matrix(0.43335568,0,0,-0.43335568,-63.088397,140.16473)"
     id="g10"><g
       id="g12"><g
         clip-path="url(#clipPath18)"
         id="g14"><g
           transform="translate(189.6301,286.1741)"
           id="g20"><path
             id="path22"
             style="fill:#004899;fill-opacity:1;fill-rule:nonzero;stroke:none"
             d="M 0,0 C 0,-3.532 -2.872,-6.404 -6.404,-6.404 H -36.153 V 29.363 H -6.404 C -2.872,29.363 0,26.491 0,22.959 Z m -6.404,37.259 h -37.645 v -51.56 h 37.645 c 7.885,0 14.3,6.416 14.3,14.301 v 22.959 c 0,7.885 -6.415,14.3 -14.3,14.3"
             inkscape:connector-curvature="0" /></g><g
           transform="translate(278.6928,309.1329)"
           id="g24"><path
             id="path26"
             style="fill:#004899;fill-opacity:1;fill-rule:nonzero;stroke:none"
             d="m 0,0 v -22.959 c 0,-7.885 6.416,-14.3 14.301,-14.3 h 33.697 v 7.896 H 14.301 c -3.532,0 -6.405,2.872 -6.405,6.404 V 0 c 0,3.532 2.873,6.404 6.405,6.404 h 33.697 v 7.897 H 14.301 C 6.416,14.301 0,7.885 0,0"
             inkscape:connector-curvature="0" /></g><g
           transform="translate(446.0125,323.4336)"
           id="g28"><path
             id="path30"
             style="fill:#004899;fill-opacity:1;fill-rule:nonzero;stroke:none"
             d="m 0,0 h -37.308 v -51.599 h 7.897 V -7.896 H 0 c 3.532,0 6.404,-2.873 6.404,-6.405 v -37.298 h 7.897 v 37.298 C 14.301,-6.416 7.885,0 0,0"
             inkscape:connector-curvature="0" /></g><g
           transform="translate(704.585,284.1846)"
           id="g32"><path
             id="path34"
             style="fill:#333333;fill-opacity:1;fill-rule:nonzero;stroke:none"
             d="m 0,0 c 0,-2.452 -1.993,-4.446 -4.446,-4.446 h -31.707 v 13.95 h 31.707 c 0.009,0 0.017,0.002 0.026,0.002 C -1.98,9.491 0,7.506 0,5.063 Z M -36.153,31.353 H -4.446 C -1.993,31.353 0,29.359 0,26.907 v -5.061 c 0,-2.443 -1.98,-4.428 -4.42,-4.443 -0.009,0 -0.017,0.002 -0.026,0.002 H -36.153 Z M 7.896,26.907 c 0,6.805 -5.536,12.342 -12.342,12.342 H -44.049 V 17.405 9.504 -12.342 H -4.446 C 2.36,-12.342 7.896,-6.805 7.896,0 v 5.063 c 0,3.242 -1.266,6.187 -3.318,8.391 2.052,2.205 3.318,5.15 3.318,8.392 z"
             inkscape:connector-curvature="0" /></g><g
           transform="translate(638.0338,279.739)"
           id="g36"><path
             id="path38"
             style="fill:#333333;fill-opacity:1;fill-rule:nonzero;stroke:none"
             d="m 0,0 h -32.825 c -1.836,0 -3.328,1.492 -3.328,3.327 v 7.299 c 0,1.836 1.492,3.328 3.328,3.328 H 0 Z M -6.404,43.699 H -41.439 V 35.802 H -6.404 C -2.872,35.802 0,32.93 0,29.398 V 21.85 h -32.825 c -6.189,0 -11.224,-5.035 -11.224,-11.224 V 3.327 c 0,-6.188 5.035,-11.223 11.224,-11.223 H 7.896 v 25.798 3.948 7.548 c 0,7.885 -6.415,14.301 -14.3,14.301"
             inkscape:connector-curvature="0" /></g><g
           transform="translate(256.0926,306.0348)"
           id="g40"><path
             id="path42"
             style="fill:#004899;fill-opacity:1;fill-rule:nonzero;stroke:none"
             d="m 0,0 c 0,-2.452 -1.993,-4.446 -4.446,-4.446 h -31.705 v 7.548 c 0,3.532 2.873,6.404 6.404,6.404 H -4.446 C -1.993,9.506 0,7.513 0,5.061 Z m -4.446,17.403 h -25.301 c -7.885,0 -14.3,-6.416 -14.3,-14.301 v -11.496 -3.948 -7.55 c 0,-7.884 6.415,-14.3 14.3,-14.3 H 5.288 v 7.896 h -35.035 c -3.531,0 -6.404,2.873 -6.404,6.404 v 7.55 H -4.446 C 2.36,-12.342 7.896,-6.805 7.896,0 v 5.061 c 0,6.805 -5.536,12.342 -12.342,12.342"
             inkscape:connector-curvature="0" /></g><g
           transform="translate(386.1837,306.0348)"
           id="g44"><path
             id="path46"
             style="fill:#004899;fill-opacity:1;fill-rule:nonzero;stroke:none"
             d="m 0,0 c 0,-2.452 -1.993,-4.446 -4.446,-4.446 h -31.705 v 7.548 c 0,3.532 2.872,6.404 6.404,6.404 H -4.446 C -1.993,9.506 0,7.513 0,5.061 Z m -4.446,17.403 h -25.301 c -7.885,0 -14.3,-6.416 -14.3,-14.301 v -11.496 -3.948 -7.55 c 0,-7.884 6.415,-14.3 14.3,-14.3 H 5.288 v 7.896 h -35.035 c -3.532,0 -6.404,2.873 -6.404,6.404 v 7.55 H -4.446 C 2.36,-12.342 7.896,-6.805 7.896,0 v 5.061 c 0,6.805 -5.536,12.342 -12.342,12.342"
             inkscape:connector-curvature="0" /></g><g
           transform="translate(547.6872,286.1433)"
           id="g48"><path
             id="path50"
             style="fill:#333333;fill-opacity:1;fill-rule:nonzero;stroke:none"
             d="M 0,0 V 37.302 H -7.896 V 0 c 0,-7.885 6.415,-14.301 14.3,-14.301 h 30.349 v 7.897 H 6.404 C 2.872,-6.404 0,-3.532 0,0"
             inkscape:connector-curvature="0" /></g><g
           transform="translate(474.1919,315.541)"
           id="g52"><path
             id="path54"
             style="fill:#004899;fill-opacity:1;fill-rule:nonzero;stroke:none"
             d="m 0,0 h 21.825 v -43.706 h 7.897 V 0 H 51.545 V 7.896 H 0 Z"
             inkscape:connector-curvature="0" /></g></g></g></g></svg>
