<svg viewBox="0 0 110 28" fill="none" xmlns="http://www.w3.org/2000/svg" class="eureka-logo--large">
          <g class="eureka-logo__letters">
            <path d="M35.3915 10.526C34.7533 9.8572 33.969 9.33708 33.0966 9.0042C31.1433 8.29165 28.9891 8.30753 27.047 9.04878C26.1246 9.41334 25.2855 9.95282 24.5785 10.636C23.866 11.3401 23.3099 12.1799 22.9449 13.1029C22.5499 14.0947 22.3523 15.1509 22.3628 16.2148C22.3533 17.288 22.5604 18.3524 22.9724 19.3476C23.348 20.254 23.9078 21.077 24.6181 21.767C25.3328 22.4463 26.1822 22.9762 27.1141 23.3244C29.3032 24.119 31.7228 24.0551 33.8646 23.1461C34.9874 22.6252 35.9595 21.8397 36.6928 20.8605L36.8421 20.6702L34.404 18.768L34.2486 18.9969C33.8357 19.5804 33.2956 20.0676 32.6669 20.4235C32.0469 20.7591 31.3595 20.9595 30.6523 21.0108C29.9452 21.0622 29.235 20.9632 28.5709 20.7208C28.0547 20.5229 27.5804 20.2337 27.172 19.8677C26.7676 19.5049 26.4394 19.0688 26.2059 18.5837C25.9985 18.1694 25.8675 17.7227 25.8188 17.264H37.281L37.3084 17.0441C37.33 16.8765 37.3412 16.7078 37.342 16.5388V16.0514C37.3559 14.987 37.1859 13.9279 36.8391 12.9186C36.5296 12.0329 36.0368 11.2185 35.3915 10.526ZM33.8859 14.6871H25.831C25.8911 14.2725 26.0219 13.8707 26.2181 13.4982C26.4483 13.0523 26.7579 12.6498 27.1324 12.3093C27.5196 11.9649 27.9692 11.6938 28.4581 11.5098C28.9775 11.3112 29.5307 11.2103 30.0886 11.2126C30.6552 11.2006 31.2184 11.3017 31.7435 11.5098C32.1851 11.6876 32.5822 11.9562 32.9076 12.2974C33.2272 12.6408 33.4691 13.0459 33.6177 13.4863C33.756 13.8696 33.8461 14.2678 33.8859 14.6723V14.6871Z" fill="currentColor"></path>
            <path d="M77.3118 10.6032C76.6771 9.93584 75.8971 9.41582 75.0291 9.08137C73.0758 8.36781 70.9208 8.38475 68.9795 9.12893C68.0503 9.49333 67.2057 10.0361 66.4957 10.725C65.7851 11.4238 65.2291 12.2573 64.8622 13.1741C64.4669 14.1669 64.2694 15.2241 64.2801 16.289C64.2709 17.3622 64.478 18.4266 64.8896 19.4218C65.266 20.3279 65.8257 21.1507 66.5353 21.8412C67.2501 22.5205 68.0994 23.0504 69.0314 23.3986C71.2204 24.1932 73.6401 24.1293 75.7819 23.2203C76.9041 22.6986 77.876 21.9132 78.6101 20.9347L78.7594 20.7415L76.3213 18.8422L76.1659 19.0681C75.7498 19.6589 75.2043 20.1523 74.5689 20.5126C73.8377 20.9203 73.0064 21.1258 72.1643 21.107C71.0207 21.1084 69.918 20.6916 69.074 19.939C68.6713 19.5742 68.3444 19.1372 68.111 18.652C67.9091 18.2387 67.7832 17.794 67.7391 17.3382H79.2044L79.2287 17.1183C79.2502 16.9507 79.2614 16.7819 79.2623 16.613V16.1375C79.2759 15.0721 79.1059 14.0121 78.7594 13.0018C78.4497 12.1143 77.957 11.298 77.3118 10.6032ZM75.8062 14.7643H67.7513C67.8122 14.3499 67.943 13.9482 68.1384 13.5754C68.3687 13.1295 68.6782 12.7269 69.0527 12.3865C69.4405 12.0429 69.8899 11.7718 70.3784 11.587C70.8977 11.3881 71.451 11.2872 72.0089 11.2897C72.5754 11.2793 73.1382 11.3803 73.6638 11.587C74.1054 11.7647 74.5026 12.0334 74.828 12.3746C75.1461 12.719 75.3879 13.1237 75.5381 13.5635C75.6765 13.9467 75.7666 14.345 75.8062 14.7494V14.7643Z" fill="currentColor"></path>
            <path d="M94.6193 8.86752H90.0326L84.2299 14.7258V0.470947H80.8501V23.4761H84.2299V16.4675L90.4837 23.4761H95.1527L87.5671 15.5253L94.6193 8.86752Z" fill="currentColor"></path>
            <path d="M48.9748 8.86743V16.619C48.9748 17.9625 48.6335 19.0444 47.963 19.838C47.6538 20.2221 47.2563 20.5299 46.8026 20.7364C46.3489 20.9429 45.8516 21.0424 45.3512 21.0269C44.8228 21.0487 44.2976 20.936 43.8274 20.6999C43.4499 20.495 43.1346 20.1967 42.9131 19.835C42.6726 19.4362 42.5123 18.9964 42.4407 18.5391C42.3502 18.0067 42.3053 17.4678 42.3066 16.9281V8.86743H38.9298V17.8584C38.9254 18.6389 39.0373 19.4158 39.262 20.1649C39.4709 20.8624 39.8189 21.5129 40.286 22.079C40.761 22.6463 41.3681 23.0946 42.0567 23.3868C42.8582 23.7132 43.7209 23.8721 44.5893 23.8535C45.656 23.8632 46.7036 23.5766 47.6095 23.0272C48.1994 22.6816 48.7166 22.2297 49.1333 21.6956V23.479H52.3547V8.86743H48.9748Z" fill="currentColor"></path>
            <path d="M64.2831 11.7565V8.62075L64.0819 8.57914C63.732 8.50981 63.3754 8.47694 63.0183 8.48106C62.0297 8.47057 61.0606 8.74904 60.2358 9.28059C59.6482 9.65987 59.1454 10.1512 58.7577 10.7251V8.86745H55.5242V23.476H58.904V15.8136C58.9012 15.2587 58.9792 14.7063 59.1356 14.1729C59.2803 13.677 59.5214 13.2128 59.8457 12.8057C60.1639 12.4143 60.568 12.0974 61.0282 11.8783C61.5546 11.6363 62.1317 11.5172 62.7135 11.5306C63.1355 11.5277 63.5562 11.5756 63.9661 11.6732L64.2831 11.7565Z" fill="currentColor"></path>
            <path d="M108.675 12.0091C108.429 11.3202 108.034 10.6908 107.517 10.1633C106.96 9.62069 106.288 9.20371 105.548 8.94173C104.653 8.62775 103.707 8.47663 102.756 8.4959C101.595 8.48714 100.442 8.6835 99.3523 9.07548C98.3587 9.42522 97.4461 9.96367 96.6673 10.6597L96.4936 10.8232L98.3526 12.9988L98.5477 12.8056C99.0506 12.3282 99.6408 11.9471 100.288 11.6821C100.982 11.3865 101.731 11.2356 102.488 11.2393C103.36 11.1965 104.22 11.445 104.926 11.9437C105.505 12.4044 105.81 13.1029 105.81 14.0867V14.2264C104.673 14.2264 103.531 14.2828 102.409 14.375C101.284 14.4568 100.174 14.6765 99.1054 15.0289C98.1786 15.3187 97.3405 15.8295 96.6673 16.515C96.0334 17.1838 95.7134 18.0962 95.7134 19.2286C95.6899 19.9957 95.8794 20.7546 96.262 21.4251C96.5957 21.9897 97.0549 22.4742 97.606 22.8429C98.1465 23.1999 98.7483 23.4596 99.3827 23.6097C99.9868 23.7574 100.607 23.8342 101.23 23.8386C102.261 23.8622 103.283 23.6376 104.204 23.1847C104.86 22.844 105.442 22.3839 105.92 21.8294V23.4819H109.056V14.268C109.061 13.4994 108.933 12.7355 108.675 12.0091ZM105.81 16.7468V17.2432C105.846 18.268 105.481 19.2678 104.789 20.0401C104.122 20.7653 103.144 21.1339 101.882 21.1339C101.54 21.1338 101.199 21.1 100.864 21.0328C100.559 20.9728 100.268 20.859 100.004 20.6969C99.758 20.546 99.5497 20.3428 99.3949 20.1025C99.237 19.8237 99.1601 19.5082 99.1724 19.19C99.1609 18.9578 99.2022 18.726 99.2933 18.5112C99.3845 18.2964 99.5233 18.1039 99.6997 17.9476C100.116 17.5941 100.609 17.337 101.141 17.1956C101.803 17.0134 102.482 16.8969 103.168 16.8479C103.921 16.7884 104.658 16.7587 105.359 16.7587L105.81 16.7468Z" fill="currentColor"></path>
          </g>
          <path d="M17.0021 27.7264H2.41C2.06898 27.7278 1.73524 27.6302 1.45123 27.4461C1.16722 27.262 0.945784 26.9997 0.815086 26.6925C0.684389 26.3853 0.650339 26.0472 0.717268 25.7211C0.784197 25.3949 0.94908 25.0956 1.19094 24.8611L10.4344 15.8493L1.45609 7.0931C1.21528 6.85848 1.05132 6.55941 0.984995 6.2338C0.918672 5.9082 0.95297 5.57072 1.08354 5.26414C1.21411 4.95757 1.43508 4.69571 1.71843 4.51175C2.00178 4.32779 2.33475 4.23002 2.67514 4.23084H16.999C17.4428 4.24906 17.8622 4.43379 18.1695 4.74645C18.4769 5.05911 18.6485 5.47551 18.6485 5.90867C18.6485 6.34182 18.4769 6.75822 18.1695 7.07088C17.8622 7.38354 17.4428 7.56828 16.999 7.5865H6.82602L14.0764 14.6634C14.3994 14.9788 14.5809 15.4064 14.5809 15.8523C14.5809 16.2981 14.3994 16.7257 14.0764 17.0412L6.56393 24.3707H17.0021C17.4458 24.3889 17.8652 24.5737 18.1726 24.8863C18.48 25.199 18.6516 25.6154 18.6516 26.0486C18.6516 26.4817 18.48 26.8981 18.1726 27.2108C17.8652 27.5234 17.4458 27.7082 17.0021 27.7264Z" fill="#71BD54"></path>
        </svg>
